<?xml version="1.0" standalone="no"?>
<!DOCTYPE svg PUBLIC "-//W3C//DTD SVG 20010904//EN"
 "http://www.w3.org/TR/2001/REC-SVG-20010904/DTD/svg10.dtd">
<svg version="1.0" xmlns="http://www.w3.org/2000/svg"
 width="1024.000000pt" height="998.000000pt" viewBox="0 0 1024.000000 998.000000"
 preserveAspectRatio="xMidYMid meet">

<g transform="translate(0.000000,998.000000) scale(0.100000,-0.100000)"
fill="#000000" stroke="none">
<path d="M1493 9965 c-321 -59 -646 -215 -893 -427 -267 -231 -473 -581 -572
-973 l-22 -90 -4 -3435 c-2 -2523 0 -3455 8 -3510 62 -409 289 -828 590 -1088
250 -216 575 -370 901 -427 124 -22 7111 -23 7234 -1 333 59 651 209 905 428
294 255 513 651 585 1059 22 124 23 6851 1 6974 -34 195 -84 341 -179 530
-251 501 -705 840 -1279 955 -99 20 -130 20 -3652 19 -2888 -1 -3564 -4 -3623
-14z m3173 -4770 c432 -1204 782 -2195 780 -2202 -4 -10 -102 -13 -469 -13
-417 0 -466 2 -478 16 -8 9 -93 246 -189 526 l-175 509 -805 -1 c-622 0 -807
-3 -817 -13 -6 -6 -84 -239 -173 -517 -112 -348 -169 -510 -182 -523 -19 -16
-51 -17 -436 -15 -369 3 -416 5 -425 19 -8 12 148 471 658 1930 367 1053 687
1972 711 2042 46 136 64 235 64 346 0 39 5 72 12 79 9 9 146 12 576 10 l565
-3 783 -2190z m2984 1140 c288 -65 504 -176 676 -349 184 -185 320 -450 384
-751 17 -76 23 -149 27 -307 5 -205 -9 -454 -28 -490 -6 -12 -30 -18 -86 -24
-43 -5 -512 -9 -1043 -9 l-965 0 2 -57 c2 -69 51 -219 100 -308 47 -85 178
-216 263 -263 142 -78 349 -133 540 -143 233 -13 641 42 854 116 32 11 62 17
67 14 5 -3 9 -159 9 -348 0 -314 -1 -344 -17 -358 -23 -21 -187 -81 -288 -107
-236 -59 -502 -86 -789 -78 -216 6 -347 21 -496 57 -441 107 -784 379 -987
783 -139 277 -211 680 -184 1023 39 490 213 897 510 1195 245 244 488 368 811
414 135 20 537 13 640 -10z"/>
<path d="M3257 6423 c-26 -104 -97 -348 -158 -543 -60 -195 -135 -438 -164
-540 -30 -102 -75 -246 -100 -320 -25 -74 -45 -140 -45 -147 0 -10 103 -13
524 -13 289 0 527 3 529 8 3 4 -30 115 -73 247 -136 419 -317 1002 -386 1245
-36 129 -69 238 -73 243 -4 4 -28 -77 -54 -180z"/>
<path d="M7084 5616 c-38 -12 -94 -36 -124 -52 -78 -42 -188 -155 -232 -239
-39 -75 -84 -208 -90 -265 l-3 -35 565 -3 c494 -2 570 0 612 14 l48 16 0 66
c-1 212 -171 427 -391 497 -110 35 -280 35 -385 1z"/>
</g>
</svg>
