<?xml version="1.0" standalone="no"?>
<!DOCTYPE svg PUBLIC "-//W3C//DTD SVG 20010904//EN"
 "http://www.w3.org/TR/2001/REC-SVG-20010904/DTD/svg10.dtd">
<svg version="1.0" xmlns="http://www.w3.org/2000/svg"
 width="426.000000pt" height="293.000000pt" viewBox="0 0 426.000000 293.000000"
 preserveAspectRatio="xMidYMid meet">

<g transform="translate(0.000000,293.000000) scale(0.100000,-0.100000)"
fill="#000000" stroke="none">
<path d="M513 2625 c-166 -40 -254 -162 -284 -389 -32 -249 49 -470 197 -541
133 -63 358 -61 484 4 l35 18 3 239 c2 216 1 240 -15 251 -12 9 -61 13 -160
13 -167 0 -166 1 -161 -108 l3 -67 45 -3 c95 -5 91 -1 88 -105 l-3 -92 -85 -3
c-79 -2 -88 -1 -128 25 -30 20 -51 44 -70 83 -25 51 -27 64 -27 185 0 143 13
195 63 248 48 51 86 62 202 61 58 0 117 -6 132 -12 34 -14 41 -5 62 76 20 80
20 79 -6 93 -68 37 -271 49 -375 24z"/>
<path d="M1877 2594 c-4 -4 -7 -210 -7 -459 0 -337 3 -454 12 -463 14 -14 156
-16 178 -2 12 7 16 45 20 202 l5 193 130 0 130 0 3 -196 c3 -226 -6 -209 109
-209 103 0 93 -50 93 476 l0 465 -97 -3 -98 -3 -5 -170 -5 -170 -130 0 -130 0
-5 170 -5 170 -95 3 c-53 1 -99 0 -103 -4z"/>
<path d="M3357 2593 c-4 -3 -7 -212 -7 -464 l0 -457 23 -6 c48 -13 106 -6 125
14 l19 20 49 -22 c65 -30 220 -33 274 -5 92 46 142 211 120 395 -20 162 -69
226 -190 251 -45 9 -66 8 -115 -5 -109 -28 -100 -41 -103 134 l-3 152 -93 0
c-51 0 -96 -3 -99 -7z m362 -458 c42 -36 57 -113 42 -210 -16 -93 -33 -110
-109 -109 -103 2 -103 1 -100 172 l3 147 35 12 c57 19 95 16 129 -12z"/>
<path d="M1088 2551 c-29 -26 -33 -35 -33 -80 0 -66 31 -101 99 -108 42 -5 48
-3 81 30 29 29 35 42 35 77 0 34 -6 48 -34 76 -46 46 -101 48 -148 5z"/>
<path d="M1443 2483 c-9 -3 -13 -31 -13 -88 0 -90 -4 -98 -58 -110 -18 -4 -36
-14 -39 -22 -5 -13 -7 -75 -4 -110 1 -8 16 -13 39 -13 20 0 42 -4 49 -8 7 -5
12 -63 15 -177 3 -140 7 -176 22 -206 23 -45 85 -86 143 -95 48 -7 154 0 172
11 12 7 15 114 3 131 -4 6 -29 14 -57 17 -78 8 -85 23 -85 182 0 151 -3 145
85 145 61 0 65 5 65 85 0 71 -15 85 -91 85 l-59 0 0 84 c0 67 -3 85 -16 90
-19 7 -153 7 -171 -1z"/>
<path d="M1072 2298 c-9 -9 -12 -94 -12 -319 l0 -307 23 -6 c12 -3 47 -6 77
-6 30 0 65 3 78 6 l22 6 0 313 c0 276 -2 314 -16 319 -29 11 -160 6 -172 -6z"/>
<path d="M2660 2045 c0 -235 2 -259 20 -294 39 -78 106 -106 235 -99 53 3 97
12 129 26 l49 22 19 -20 c22 -23 106 -28 126 -8 14 14 17 594 4 616 -6 9 -33
12 -98 10 l-89 -3 -3 -221 c-3 -261 -2 -258 -103 -259 -50 0 -62 3 -72 20 -8
13 -14 97 -17 240 l-5 220 -97 3 -98 3 0 -256z"/>
<path d="M598 1534 c-5 -4 -8 -216 -8 -471 l0 -463 40 0 40 0 0 185 c0 217
-23 193 186 197 134 3 143 4 200 33 75 39 116 97 134 188 24 131 -28 247 -136
302 -58 29 -61 30 -254 33 -107 2 -198 0 -202 -4z m404 -93 c134 -65 138 -294
6 -362 -35 -18 -65 -23 -165 -27 -66 -2 -133 -2 -147 2 l-26 6 0 199 c0 181 2
200 18 205 9 3 74 4 144 2 104 -3 135 -7 170 -25z"/>
<path d="M1400 1227 c-62 -16 -70 -23 -70 -59 0 -28 2 -30 28 -24 15 4 72 9
127 12 88 5 104 3 132 -15 43 -27 69 -116 41 -139 -7 -5 -65 -14 -129 -20
-134 -11 -185 -32 -224 -91 -37 -55 -41 -122 -13 -191 28 -65 63 -92 146 -110
67 -14 132 -3 206 33 38 18 38 18 53 -2 8 -12 23 -21 34 -21 18 0 19 9 19 253
0 242 -1 254 -23 292 -32 59 -97 88 -201 91 -45 2 -101 -3 -126 -9z m268 -403
c3 -115 0 -121 -81 -148 -128 -43 -227 5 -227 109 0 39 26 92 52 106 30 17
151 38 208 36 l45 -2 3 -101z"/>
<path d="M2005 1221 c-69 -28 -109 -77 -125 -150 -20 -97 1 -190 56 -244 28
-28 28 -29 11 -59 -20 -34 -22 -90 -5 -117 10 -16 4 -26 -45 -74 l-57 -55 0
-62 c0 -74 18 -112 68 -143 56 -35 110 -47 205 -47 156 0 261 41 310 119 30
49 29 146 -2 189 -34 49 -67 60 -233 82 -118 15 -156 23 -165 37 -16 21 -16
29 -3 54 9 16 22 19 88 19 107 0 149 14 198 65 55 57 71 135 49 239 -8 38 -12
72 -9 75 3 3 24 13 47 21 23 9 42 22 42 30 0 12 -22 16 -105 21 -58 4 -143 9
-190 13 -71 5 -93 3 -135 -13z m211 -77 c47 -22 65 -62 65 -140 0 -113 -39
-156 -149 -162 -114 -5 -172 41 -180 146 -5 75 19 130 68 154 45 23 150 24
196 2z m35 -563 c31 -5 65 -15 77 -22 59 -37 50 -130 -17 -174 -71 -47 -255
-58 -335 -20 -50 24 -73 85 -52 136 17 41 28 52 82 80 41 21 113 21 245 0z"/>
<path d="M2665 1226 c-25 -6 -58 -28 -86 -56 -64 -64 -84 -138 -77 -292 6
-129 27 -187 84 -237 57 -50 157 -70 261 -51 109 19 123 27 123 67 0 32 -2 35
-22 28 -92 -28 -210 -33 -262 -11 -18 8 -45 29 -60 48 -26 35 -51 127 -38 140
4 4 97 9 207 10 l200 3 3 70 c7 146 -49 254 -146 283 -49 14 -131 14 -187 -2z
m182 -86 c46 -28 65 -70 61 -138 l-3 -57 -149 -3 c-165 -3 -178 1 -170 51 15
87 38 125 90 152 42 22 132 19 171 -5z"/>
<path d="M3265 1227 c-60 -15 -110 -51 -129 -92 -20 -41 -23 -106 -7 -147 19
-49 109 -98 182 -98 55 0 137 -28 154 -53 18 -25 20 -76 4 -110 -26 -56 -135
-80 -264 -58 -55 10 -70 10 -76 -1 -26 -41 2 -62 104 -78 99 -15 186 -3 248
36 93 58 113 189 42 265 -32 34 -87 54 -188 68 -104 15 -129 33 -133 94 -3 40
1 51 24 72 14 13 42 28 61 31 38 7 183 -1 221 -12 22 -6 23 -4 20 32 -3 38 -3
38 -63 51 -72 15 -145 15 -200 0z"/>
</g>
</svg>
