<?xml version="1.0" standalone="no"?>
<!DOCTYPE svg PUBLIC "-//W3C//DTD SVG 20010904//EN"
 "http://www.w3.org/TR/2001/REC-SVG-20010904/DTD/svg10.dtd">
<svg version="1.0" xmlns="http://www.w3.org/2000/svg"
 width="2101.000000pt" height="2048.000000pt" viewBox="0 0 2101.000000 2048.000000"
 preserveAspectRatio="xMidYMid meet">

<g transform="translate(0.000000,2048.000000) scale(0.100000,-0.100000)"
fill="#000000" stroke="none">
<path d="M3375 20469 c-49 -5 -163 -20 -253 -34 -1016 -163 -1927 -747 -2496
-1600 -325 -487 -523 -1018 -603 -1615 -17 -129 -18 -433 -18 -6975 0 -5622 2
-6859 13 -6945 79 -622 277 -1161 612 -1660 465 -694 1141 -1202 1945 -1463
220 -71 372 -106 681 -154 102 -16 582 -18 7159 -21 5211 -2 7087 0 7190 8
1023 83 1988 603 2617 1411 443 569 713 1252 778 1969 14 161 14 13539 0
13700 -144 1588 -1271 2903 -2815 3285 -161 40 -399 80 -565 95 -141 12
-14108 12 -14245 -1z m4575 -5209 c525 -30 925 -103 1340 -245 498 -172 891
-412 1230 -754 429 -431 686 -968 790 -1646 28 -176 38 -600 21 -810 -65 -793
-331 -1398 -835 -1898 -583 -580 -1339 -876 -2471 -968 -179 -15 -895 -18
-1187 -5 l-208 9 -2 -1437 -3 -1438 -33 -29 -32 -29 -889 0 c-860 0 -890 1
-912 19 l-24 19 -3 4560 c-2 4478 -2 4560 17 4583 19 24 20 24 303 30 155 4
488 12 738 19 250 6 588 15 750 19 444 12 1212 12 1410 1z m7730 -2185 c487
-43 767 -94 1050 -191 229 -78 249 -92 269 -185 15 -71 15 -1484 0 -1528 -13
-38 -30 -48 -97 -57 -48 -6 -58 -3 -179 54 -318 151 -602 235 -1028 306 -381
63 -786 81 -1015 46 -125 -20 -256 -53 -317 -80 -155 -70 -255 -238 -240 -402
12 -131 117 -270 290 -383 151 -98 570 -293 831 -387 520 -187 1127 -501 1419
-734 421 -336 649 -758 698 -1290 49 -536 -106 -1084 -418 -1474 -363 -455
-882 -740 -1583 -871 -686 -128 -1610 -92 -2345 92 -155 38 -411 125 -545 184
-115 50 -165 90 -180 145 -6 21 -10 333 -10 813 0 846 0 839 54 853 19 5 52
-9 143 -60 452 -252 1032 -428 1616 -493 190 -20 610 -23 747 -5 405 55 592
179 633 417 22 128 -26 238 -157 362 -143 136 -385 257 -946 473 -288 111
-432 174 -635 279 -589 305 -904 564 -1154 951 -197 304 -292 669 -278 1070
10 264 54 474 149 713 153 383 429 713 802 956 97 63 340 186 463 235 271 106
609 177 983 206 167 13 774 4 980 -15z"/>
<path d="M6948 13541 c-180 -4 -291 -10 -298 -17 -7 -7 -9 -459 -8 -1470 l3
-1459 55 -7 c118 -14 668 -20 870 -9 528 29 994 154 1281 344 254 169 419 374
502 625 45 135 65 246 78 438 35 529 -166 988 -547 1244 -205 139 -524 248
-864 295 -133 19 -608 26 -1072 16z"/>
</g>
</svg>
